<svg xmlns="http://www.w3.org/2000/svg" version="1.1" xmlns:xlink="http://www.w3.org/1999/xlink" xmlns:svgjs="http://svgjs.dev/svgjs" width="2000" height="1247" viewBox="0 0 2000 1247"><g transform="matrix(1,0,0,1,-1.2121212121212466,0.504858299595071)"><svg viewBox="0 0 396 247" data-background-color="#ffffff" preserveAspectRatio="xMidYMid meet" height="1247" width="2000" xmlns="http://www.w3.org/2000/svg" xmlns:xlink="http://www.w3.org/1999/xlink"><g id="tight-bounds" transform="matrix(1,0,0,1,0.2400000000000091,-0.09999999999999432)"><svg viewBox="0 0 395.52 247.2" height="247.2" width="395.52"><g><svg></svg></g><g><svg viewBox="0 0 395.52 247.2" height="247.2" width="395.52"><mask id="fe5a864c-34b3-4ade-9355-04977002de34"><rect width="395.52" height="247.2" fill="white"></rect><g transform="matrix(1,0,0,1,88.14,37.08)" id="clone"><svg viewBox="0 0 219.23999999999998 173.04" height="173.04" width="219.23999999999998"><g><svg viewBox="0 0 219.23999999999998 173.04" height="173.04" width="219.23999999999998"><g><svg viewBox="0 0 219.23999999999998 173.04" height="173.04" width="219.23999999999998"><g id="SvgjsG1829"><svg viewBox="0 0 219.23999999999998 173.04" height="173.04" width="219.23999999999998" id="SvgjsSvg1828"><g><svg viewBox="0 0 219.23999999999998 173.04" height="173.04" width="219.23999999999998"><g transform="matrix(1,0,0,1,0,0)"><svg width="219.23999999999998" viewBox="-3.45 -33.45 53.2 42.2" height="173.04" data-palette-color="#ed1703"><path d="M34.85 1.25L34.85 1.25Q33.3 1.25 32.6-0.13 31.9-1.5 31.9-3.63 31.9-5.75 32.8-9.45L32.8-9.45Q31.05-9.6 26.85-10.15L26.85-10.15Q19.9-1.55 15.3 1.8L15.3 1.8Q11.35 4.75 7.1 4.75L7.1 4.75Q4.4 4.75 2.48 3.4 0.55 2.05 0.55-0.6L0.55-0.6Q0.55-1.1 0.8-1.53 1.05-1.95 1.3-1.75 1.55-1.55 1.55-0.6L1.55-0.6Q1.55 1.1 2.88 1.95 4.2 2.8 6.1 2.8L6.1 2.8Q10.2 2.8 14.18 0.13 18.15-2.55 25-10.35L25-10.35Q17.65-11.25 15.3-11.25L15.3-11.25Q8.95-11.25 7.45-7.1L7.45-7.1Q7.25-6.55 7.25-6.08 7.25-5.6 7.45-5.23 7.65-4.85 7.53-4.63 7.4-4.4 7.1-4.42 6.8-4.45 6.6-4.75L6.6-4.75Q6.05-5.7 6.05-6.6L6.05-6.6Q6.05-9.7 7.18-11.18 8.3-12.65 9.8-13.05L9.8-13.05Q11.6-13.55 14-13.55 16.4-13.55 26.1-11.65L26.1-11.65Q28.8-14.75 34.3-21.63 39.8-28.5 39.8-28.6L39.8-28.6 39.85-28.6Q39.9-28.65 40.1-28.75L40.1-28.75Q41.3-29.45 42.7-29.45L42.7-29.45Q43.2-29.45 43.2-28.95L43.2-28.95Q43.2-28.9 43.15-28.83 43.1-28.75 43.05-28.63 43-28.5 42.95-28.4L42.95-28.4Q38.15-20.45 35.5-10.5L35.5-10.5 35.35-10.15 36.6-10.1Q37-10.05 38.02-10.05 39.05-10.05 40.2-10.53 41.35-11 41.68-11.55 42-12.1 42.25-11.8 42.5-11.5 42.3-11.15L42.3-11.15Q41.75-10.15 40.35-9.7L40.35-9.7Q39.15-9.2 37.98-9.2 36.8-9.2 36.45-9.2L36.45-9.2 35.1-9.25Q34.15-4.9 34.15-2.33 34.15 0.25 35.55 0.25L35.55 0.25Q36.9 0.25 39.75-1.9 42.6-4.05 45.1-7.45L45.1-7.45Q45.25-7.65 45.5-7.55 45.75-7.45 45.75-7.3 45.75-7.15 45.68-6.93 45.6-6.7 44.9-5.8L44.9-5.8Q42.8-3 39.75-0.5L39.75-0.5Q37.55 1.25 34.85 1.25ZM37.6-23.9L37.6-23.9Q37.65-24 37.73-24.18 37.8-24.35 37.85-24.45L37.85-24.45Q31.6-15.9 27.8-11.25L27.8-11.25 33.05-10.4Q34.45-15.85 37.6-23.9Z" opacity="1" transform="matrix(1,0,0,1,0,0)" fill="black" class="wordmark-text-0" id="SvgjsPath1827" stroke-width="7" stroke="black" stroke-linejoin="round"></path></svg></g></svg></g></svg></g></svg></g></svg></g></svg></g></mask><g mask="url(#fe5a864c-34b3-4ade-9355-04977002de34)"><g><path d="M254.276 189.294v0c-4.991 0-8.614-2.222-10.868-6.666-2.254-4.412-3.381-10.047-3.382-16.907 0-6.827 1.449-16.198 4.348-28.113v0c-5.636-0.483-15.216-1.61-28.741-3.381v0c-22.381 27.695-40.978 46.936-55.792 57.724v0c-12.72 9.5-25.923 14.25-39.61 14.25v0c-8.695 0-16.134-2.174-22.316-6.522-6.215-4.347-9.323-10.788-9.323-19.321v0c0-1.61 0.403-3.108 1.208-4.493 0.805-1.353 1.61-1.707 2.415-1.062 0.805 0.644 1.208 2.496 1.207 5.555v0c0 5.474 2.142 9.58 6.425 12.317 4.251 2.737 9.435 4.106 15.554 4.106v0c13.203 0 26.213-4.299 39.03-12.897 12.785-8.63 30.206-25.505 52.265-50.623v0c-23.669-2.898-39.288-4.347-46.855-4.348v0c-20.449 0-33.089 6.682-37.919 20.047v0c-0.644 1.771-0.966 3.414-0.966 4.927 0 1.546 0.322 2.914 0.966 4.106 0.644 1.224 0.773 2.19 0.387 2.898-0.419 0.741-1.111 1.079-2.078 1.014-0.966-0.097-1.771-0.628-2.415-1.594v0c-1.771-3.059-2.657-6.038-2.657-8.936v0c0-9.983 1.819-17.357 5.459-22.123 3.607-4.734 7.825-7.745 12.656-9.033v0c5.797-1.61 12.559-2.415 20.287-2.416 7.729 0 27.211 3.059 58.449 9.178v0c8.695-9.983 21.898-26.052 39.609-48.208 17.712-22.123 26.567-33.346 26.568-33.668v0h0.241c0.161-0.161 0.564-0.403 1.208-0.724v0c3.864-2.254 8.051-3.381 12.559-3.382v0c1.61 0 2.415 0.805 2.415 2.416v0c0 0.161-0.081 0.354-0.241 0.579-0.161 0.258-0.322 0.58-0.483 0.966-0.161 0.419-0.322 0.789-0.483 1.111v0c-15.457 25.601-27.453 54.423-35.987 86.465v0l-0.725 1.691 6.038 0.241c1.288 0.161 3.575 0.242 6.86 0.242 3.317 0 6.827-0.773 10.53-2.319 3.703-1.514 6.086-3.156 7.149-4.927 1.03-1.771 1.948-2.174 2.753-1.207 0.805 0.966 0.886 2.013 0.242 3.14v0c-1.771 3.22-4.911 5.555-9.419 7.004v0c-3.864 1.61-7.68 2.415-11.449 2.415-3.8 0-6.263 0-7.39 0v0l-6.521-0.242c-3.059 14.008-4.589 25.151-4.589 33.427 0 8.308 2.254 12.463 6.762 12.463v0c4.347 0 11.11-3.462 20.288-10.386 9.178-6.924 17.792-15.86 25.843-26.809v0c0.483-0.644 1.127-0.805 1.932-0.483 0.805 0.322 1.208 0.725 1.208 1.208 0 0.483-0.113 1.079-0.338 1.787-0.258 0.741-1.514 2.56-3.768 5.458v0c-6.763 9.017-15.055 17.551-24.877 25.602v0c-7.085 5.636-14.974 8.453-23.669 8.453zM267.56 67.808v0c0.161-0.322 0.37-0.773 0.628-1.352 0.225-0.547 0.419-0.982 0.579-1.304v0c-20.127 27.534-36.309 48.787-48.545 63.761v0l25.359 4.106c4.508-17.551 11.835-39.288 21.979-65.211z" fill="#000000" fill-rule="nonzero" stroke="none" stroke-width="1" stroke-linecap="butt" stroke-linejoin="miter" stroke-miterlimit="10" stroke-dasharray="" stroke-dashoffset="0" font-family="none" font-weight="none" font-size="none" text-anchor="none" style="mix-blend-mode: normal" data-fill-palette-color="tertiary"></path></g></g><g transform="matrix(1,0,0,1,88.14,37.08)"><svg viewBox="0 0 219.23999999999998 173.04" height="173.04" width="219.23999999999998"><g><svg viewBox="0 0 219.23999999999998 173.04" height="173.04" width="219.23999999999998"><g><svg viewBox="0 0 219.23999999999998 173.04" height="173.04" width="219.23999999999998"><g id="textblocktransform"><svg viewBox="0 0 219.23999999999998 173.04" height="173.04" width="219.23999999999998" id="textblock"><g><svg viewBox="0 0 219.23999999999998 173.04" height="173.04" width="219.23999999999998"><g transform="matrix(1,0,0,1,0,0)"><svg width="219.23999999999998" viewBox="-3.45 -33.45 53.2 42.2" height="173.04" data-palette-color="#ed1703"><path d="M34.85 1.25L34.85 1.25Q33.3 1.25 32.6-0.13 31.9-1.5 31.9-3.63 31.9-5.75 32.8-9.45L32.8-9.45Q31.05-9.6 26.85-10.15L26.85-10.15Q19.9-1.55 15.3 1.8L15.3 1.8Q11.35 4.75 7.1 4.75L7.1 4.75Q4.4 4.75 2.48 3.4 0.55 2.05 0.55-0.6L0.55-0.6Q0.55-1.1 0.8-1.53 1.05-1.95 1.3-1.75 1.55-1.55 1.55-0.6L1.55-0.6Q1.55 1.1 2.88 1.95 4.2 2.8 6.1 2.8L6.1 2.8Q10.2 2.8 14.18 0.13 18.15-2.55 25-10.35L25-10.35Q17.65-11.25 15.3-11.25L15.3-11.25Q8.95-11.25 7.45-7.1L7.45-7.1Q7.25-6.55 7.25-6.08 7.25-5.6 7.45-5.23 7.65-4.85 7.53-4.63 7.4-4.4 7.1-4.42 6.8-4.45 6.6-4.75L6.6-4.75Q6.05-5.7 6.05-6.6L6.05-6.6Q6.05-9.7 7.18-11.18 8.3-12.65 9.8-13.05L9.8-13.05Q11.6-13.55 14-13.55 16.4-13.55 26.1-11.65L26.1-11.65Q28.8-14.75 34.3-21.63 39.8-28.5 39.8-28.6L39.8-28.6 39.85-28.6Q39.9-28.65 40.1-28.75L40.1-28.75Q41.3-29.45 42.7-29.45L42.7-29.45Q43.2-29.45 43.2-28.95L43.2-28.95Q43.2-28.9 43.15-28.83 43.1-28.75 43.05-28.63 43-28.5 42.95-28.4L42.95-28.4Q38.15-20.45 35.5-10.5L35.5-10.5 35.35-10.15 36.6-10.1Q37-10.05 38.02-10.05 39.05-10.05 40.2-10.53 41.35-11 41.68-11.55 42-12.1 42.25-11.8 42.5-11.5 42.3-11.15L42.3-11.15Q41.75-10.15 40.35-9.7L40.35-9.7Q39.15-9.2 37.98-9.2 36.8-9.2 36.45-9.2L36.45-9.2 35.1-9.25Q34.15-4.9 34.15-2.33 34.15 0.25 35.55 0.25L35.55 0.25Q36.9 0.25 39.75-1.9 42.6-4.05 45.1-7.45L45.1-7.45Q45.25-7.65 45.5-7.55 45.75-7.45 45.75-7.3 45.75-7.15 45.68-6.93 45.6-6.7 44.9-5.8L44.9-5.8Q42.8-3 39.75-0.5L39.75-0.5Q37.55 1.25 34.85 1.25ZM37.6-23.9L37.6-23.9Q37.65-24 37.73-24.18 37.8-24.35 37.85-24.45L37.85-24.45Q31.6-15.9 27.8-11.25L27.8-11.25 33.05-10.4Q34.45-15.85 37.6-23.9Z" opacity="1" transform="matrix(1,0,0,1,0,0)" fill="#000000" class="wordmark-text-0" data-fill-palette-color="primary" id="text-0"></path></svg></g></svg></g></svg></g></svg></g></svg></g></svg></g></svg></g><defs></defs></svg><rect width="395.52" height="247.2" fill="none" stroke="none" visibility="hidden"></rect></g></svg></g></svg>